Coordinates
version=1
nRows=22
nColumns=24
inDegrees=yes

Units are S.I. units (second, meters, Newtons, ...)
Angles are in degrees.

endheader
time	pelvis_tilt	pelvis_list	pelvis_rotation	pelvis_tx	pelvis_ty	pelvis_tz	hip_flexion_r	hip_adduction_r	hip_rotation_r	knee_angle_r	ankle_angle_r	subtalar_angle_r	mtp_angle_r	hip_flexion_l	hip_adduction_l	hip_rotation_l	knee_angle_l	ankle_angle_l	subtalar_angle_l	mtp_angle_l	lumbar_extension	lumbar_bending	lumbar_rotation
      6.80000000	     10.17570031	     -2.96608380	      3.73783927	      0.34989095	      0.94706707	     -0.19408465	     -3.35021353	      9.06711276	     -4.60910655	     -7.54743686	      8.30167902	     -0.94772203	      0.00000000	      4.74059597	     -3.92135754	     -2.81666341	    -61.07925836	     -7.34096024	    -20.89981018	      0.00000000	    -28.21723122	      4.80418946	     -4.05460159
      6.81000000	     10.09760930	     -2.85672645	      3.48992166	      0.35835060	      0.94773325	     -0.19331541	     -3.96983698	      8.96430243	     -4.60946931	     -7.34963516	      8.78031345	     -0.43611245	      0.00000000	      5.94494454	     -3.67702083	     -2.94241352	    -60.77828932	     -5.32245338	    -20.44416301	      0.00000000	    -28.22723164	      4.50204014	     -3.67106299
      6.82000000	     10.02616645	     -2.76844105	      3.20826174	      0.36680140	      0.94828069	     -0.19253956	     -4.60090506	      8.88054065	     -4.57054167	     -7.13628625	      9.24073208	      0.04957830	      0.00000000	      7.05991934	     -3.46699613	     -3.11090029	    -60.19883833	     -3.46490433	    -19.67266443	      0.00000000	    -28.26655106	      4.21377461	     -3.25008480
      6.83000000	      9.96238602	     -2.70295730	      2.90760372	      0.37526056	      0.94870429	     -0.19179153	     -5.24546079	      8.81807188	     -4.50792931	     -6.90572119	      9.68826092	      0.49191117	      0.00000000	      8.07866736	     -3.29578822	     -3.31531551	    -59.33772814	     -1.77952962	    -18.63679338	      0.00000000	    -28.33220902	      3.95645736	     -2.81458140
      6.84000000	      9.89709434	     -2.66108632	      2.59543225	      0.38373603	      0.94898710	     -0.19108100	     -5.88762111	      8.77795506	     -4.42297965	     -6.67102157	     10.12669175	      0.88103830	      0.00000000	      9.00645939	     -3.16007776	     -3.53904713	    -58.19434422	     -0.26019190	    -17.37513055	      0.00000000	    -28.41148972	      3.72932776	     -2.37801554
      6.85000000	      9.82962370	     -2.64234562	      2.27199192	      0.39224206	      0.94913342	     -0.19041237	     -6.52590094	      8.76046906	     -4.27341267	     -6.44071835	     10.54907069	      1.18756175	      0.00000000	      9.83362002	     -3.05706598	     -3.77928799	    -56.75882396	      1.09587755	    -15.95160402	      0.00000000	    -28.49648375	      3.53369823	     -1.94311261
      6.86000000	      9.75540934	     -2.64539549	      1.94712375	      0.40078465	      0.94913927	     -0.18979947	     -7.15217287	      8.76348290	     -4.05534290	     -6.22449015	     10.95273662	      1.40240868	      0.00000000	     10.56119408	     -2.98020089	     -4.02030458	    -55.02862827	      2.30049187	    -14.42809853	      0.00000000	    -28.57644636	      3.36959047	     -1.51895567
      6.87000000	      9.68433894	     -2.67264432	      1.62480574	      0.40936294	      0.94902271	     -0.18924617	     -7.77604994	      8.78946265	     -3.75076890	     -6.02846670	     11.36483044	      1.54075508	      0.00000000	     11.17176838	     -2.92759997	     -4.25123984	    -52.99695111	      3.32819723	    -12.88248892	      0.00000000	    -28.66149855	      3.24256201	     -1.09161157
      6.88000000	      9.59647363	     -2.72156267	      1.32259764	      0.41799715	      0.94875911	     -0.18877171	     -8.37830706	      8.83424015	     -3.43448729	     -5.84532472	     11.73140104	      1.61314732	      0.00000000	     11.68408651	     -2.89293609	     -4.46174936	    -50.66574596	      4.27388908	    -11.36031013	      0.00000000	    -28.71446062	      3.15328169	     -0.71049376
      6.89000000	      9.50025889	     -2.79244532	      1.04073816	      0.42668181	      0.94836392	     -0.18838185	     -8.96766500	      8.89733042	     -3.10415632	     -5.67752287	     12.09388817	      1.65154975	      0.00000000	     12.08379511	     -2.87025192	     -4.64280978	    -48.03248925	      5.08112407	     -9.93073712	      0.00000000	    -28.74632193	      3.10647769	     -0.35223071
      6.90000000	      9.39136081	     -2.89024792	      0.78584349	      0.43543445	      0.94782930	     -0.18808069	     -9.54286327	      8.98406263	     -2.79465191	     -5.51867089	     12.45026541	      1.67683790	      0.00000000	     12.37428241	     -2.85970806	     -4.77924178	    -45.10670671	      5.76312414	     -8.61422479	      0.00000000	    -28.74431411	      3.10826523	     -0.02101164
      6.91000000	      9.26861168	     -3.01303175	      0.55341847	      0.44425888	      0.94715412	     -0.18786368	    -10.10036241	      9.09146583	     -2.51637241	     -5.37320523	     12.83736369	      1.71405532	      0.00000000	     12.55405564	     -2.85558495	     -4.86543990	    -41.89659012	      6.27835888	     -7.44831485	      0.00000000	    -28.70642463	      3.15773378	      0.29426430
      6.92000000	      9.13410546	     -3.17547368	      0.34682254	      0.45318172	      0.94633230	     -0.18770666	    -10.64693735	      9.23814467	     -2.28276711	     -5.23568602	     13.23365854	      1.76318448	      0.00000000	     12.62541943	     -2.87351067	     -4.87859280	    -38.43379435	      6.65956343	     -6.38332659	      0.00000000	    -28.62400810	      3.25825129	      0.59746757
      6.93000000	      8.97983798	     -3.36825455	      0.15691279	      0.46220294	      0.94535638	     -0.18764017	    -11.17081924	      9.40990438	     -2.07847490	     -5.11431733	     13.65526431	      1.82069371	      0.00000000	     12.60324422	     -2.90074400	     -4.81703751	    -34.74781944	      6.88441919	     -5.41781162	      0.00000000	    -28.49730106	      3.41783837	      0.89422821
      6.94000000	      8.81531195	     -3.60762369	     -0.01630110	      0.47133618	      0.94423395	     -0.18763585	    -11.68356549	      9.62624455	     -1.89693803	     -5.01109018	     14.07034198	      1.88723472	      0.00000000	     12.49267367	     -2.95856588	     -4.64523083	    -30.89403535	      6.97183292	     -4.50116417	      0.00000000	    -28.33804326	      3.64416116	      1.20051662
      6.95000000	      8.64683498	     -3.88256493	     -0.17938239	      0.48059865	      0.94297893	     -0.18767800	    -12.19730391	      9.87511056	     -1.71956038	     -4.91881012	     14.49791608	      1.95546566	      0.00000000	     12.29973335	     -3.04817118	     -4.38485960	    -26.92189200	      6.91350965	     -3.63470231	      0.00000000	    -28.14798104	      3.91825564	      1.51635275
      6.96000000	      8.43189004	     -4.17925546	     -0.33096211	      0.48999845	      0.94154039	     -0.18776613	    -12.66493534	     10.14382438	     -1.52710998	     -4.84230127	     14.96035875	      1.99215985	      0.00000000	     12.09419125	     -3.16063782	     -4.02185718	    -22.89715048	      6.70181791	     -2.83481629	      0.00000000	    -27.87447260	      4.22842958	      1.82686995
      6.97000000	      8.29124421	     -4.52190371	     -0.49450905	      0.49949234	      0.94010772	     -0.18785091	    -13.21501243	     10.44889994	     -1.31017449	     -4.78901879	     15.37553041	      2.07182763	      0.00000000	     11.75484246	     -3.34358130	     -3.61729678	    -18.87003873	      6.39075898	     -2.08706466	      0.00000000	    -27.69411861	      4.57939691	      2.17934327
      6.98000000	      8.15073696	     -4.87223173	     -0.64910177	      0.50908804	      0.93858858	     -0.18796829	    -13.76010520	     10.75521042	     -1.09154463	     -4.76525963	     15.76140503	      2.15954283	      0.00000000	     11.38698916	     -3.55687502	     -3.19449378	    -14.90775911	      5.99205389	     -1.44119218	      0.00000000	    -27.50738483	      4.94255025	      2.53553978
      6.99000000	      8.01745833	     -5.22401486	     -0.79802075	      0.51880630	      0.93700392	     -0.18810581	    -14.32101910	     11.05624433	     -0.87648752	     -4.74681459	     16.13721074	      2.25045228	      0.00000000	     11.00347235	     -3.80079897	     -2.85169859	    -11.08930223	      5.54556015	     -0.87893181	      0.00000000	    -27.31016624	      5.30099455	      2.89623034
      7.00000000	      7.86237825	     -5.58561858	     -0.95805694	      0.52855709	      0.93534796	     -0.18825300	    -14.82228166	     11.35788886	     -0.61818482	     -4.81485631	     16.53360743	      2.33722044	      0.00000000	     10.67737226	     -4.08756210	     -2.80453445	     -7.52144451	      5.09819729	     -0.25050314	      0.00000000	    -27.10587634	      5.66869601	      3.24154099
      7.01000000	      7.76440569	     -5.88868981	     -1.11152263	      0.53839870	      0.93375695	     -0.18847878	    -15.37131654	     11.58547469	     -0.37001612	     -4.92132448	     16.89415771	      2.44217816	      0.00000000	     10.32816686	     -4.30992162	     -3.11414881	     -4.25620897	      4.73751112	      0.47975326	      0.00000000	    -26.96512058	      5.97766628	      3.58467187
